HIERARCHY
ROOT Hips
{
	OFFSET 0.000000 0.000000 0.000000
	CHANNELS 6 Xposition Yposition Zposition Zrotation Yrotation Xrotation 
	JOINT LHipJoint
	{
		OFFSET 0.000000 0.000000 0.000000
		CHANNELS 3 Zrotation Yrotation Xrotation
		JOINT LeftUpLeg
		{
			OFFSET 1.363060 -1.794630 0.839290
			CHANNELS 3 Zrotation Yrotation Xrotation
			JOINT LeftLeg
			{
				OFFSET 2.448110 -6.726130 0.000000
				CHANNELS 3 Zrotation Yrotation Xrotation
				JOINT LeftFoot
				{
					OFFSET 2.562200 -7.039590 0.000000
					CHANNELS 3 Zrotation Yrotation Xrotation
					JOINT LeftToeBase
					{
						OFFSET 0.157640 -0.433110 2.322550
						CHANNELS 3 Zrotation Yrotation Xrotation
						End Site
						{
							OFFSET 0.000000 0.000000 0.000000
						}
					}
				}
			}
		}
	}
	JOINT RHipJoint
	{
		OFFSET 0.000000 0.000000 0.000000
		CHANNELS 3 Zrotation Yrotation Xrotation
		JOINT RightUpLeg
		{
			OFFSET -1.305520 -1.794630 0.839290
			CHANNELS 3 Zrotation Yrotation Xrotation
			JOINT RightLeg
			{
				OFFSET -2.542530 -6.985550 0.000000
				CHANNELS 3 Zrotation Yrotation Xrotation
				JOINT RightFoot
				{
					OFFSET -2.568260 -7.056230 0.000000
					CHANNELS 3 Zrotation Yrotation Xrotation
					JOINT RightToeBase
					{
						OFFSET -0.164730 -0.452590 2.363150
						CHANNELS 3 Zrotation Yrotation Xrotation
						End Site
						{
							OFFSET 0.000000 0.000000 0.000000
						}
					}
				}
			}
		}
	}
}
MOTION
Frames: 11
Frame Time: 0.008333
23.860362 16.259181 3.567916 152.718063 -83.956821 -121.195509 -13.829573 3.396326 -2.414365 -4.081686 9.309287 -7.227629 -0.967502 1.323715 21.082341 1.361851 5.957942 20.509051 2.150500 -0.000000 -90.055400 7.099757 0.963035 3.832950 3.299926 8.481521 -63.706439 2.532964 -1.013747 21.262110 0.172611 -0.024079 6.117985 -0.932200 -0.000000 -26.350400
23.702155 16.247371 3.524822 158.032098 -84.095497 -126.092777 -13.844423 3.371420 -2.391072 -3.515258 9.641946 -8.213181 -0.935609 1.395721 22.441701 1.450565 6.027063 21.352321 2.196500 -0.000000 -87.187800 7.133611 0.998865 3.698112 4.326079 8.552278 -64.649341 2.578333 -1.301542 23.478602 0.275012 0.616668 5.473508 -0.720300 0.000000 -25.003399
23.553012 16.244954 3.481244 164.812672 -84.284721 -132.499675 -13.739099 3.320121 -2.427927 -2.900215 10.042495 -9.243947 -0.918464 1.479504 23.951903 1.544987 6.207110 22.076506 2.290299 0.000000 -83.450400 7.235655 1.073793 3.557792 5.331111 8.722928 -65.310430 2.627245 -1.545264 25.413574 0.344961 1.174514 4.509017 -0.538800 0.000000 -23.635500
23.412626 16.251631 3.436397 172.697067 -84.563677 -140.068433 -13.505762 3.224136 -2.523282 -2.246060 10.472094 -10.290944 -0.900573 1.564520 25.595083 1.638245 6.532236 22.614286 2.450700 -0.000000 -78.937500 7.406336 1.149608 3.425388 6.281207 8.943291 -65.671093 2.683405 -1.747065 26.999154 0.377348 1.617528 3.317945 -0.398600 0.000000 -22.326000
23.280974 16.266831 3.389570 -179.045589 -84.964379 -148.084123 -13.190825 3.062187 -2.669023 -1.589949 10.887331 -11.330762 -0.859806 1.636449 27.341280 1.725534 7.030399 22.912000 2.691400 0.000000 -73.841800 7.605297 1.172057 3.308837 7.131325 9.144717 -65.744232 2.749135 -1.910814 28.202226 0.373647 1.933608 2.001726 -0.300401 -0.000000 -21.131300
23.156691 16.289739 3.340316 -171.232142 -85.470988 -155.735949 -12.881844 2.830705 -2.850235 -0.991806 11.254246 -12.352316 -0.786422 1.688780 29.143670 1.808160 7.718892 22.936821 3.015300 0.000000 -68.435700 7.768533 1.112070 3.202883 7.842259 9.277728 -65.555976 2.822043 -2.033257 29.020084 0.341431 2.125687 0.669782 -0.239400 -0.000000 -20.092001
23.038977 16.319461 3.288431 -164.529807 -86.013248 -162.343964 -12.647520 2.555863 -3.048125 -0.509890 11.555027 -13.356617 -0.694290 1.729828 30.944999 1.892180 8.600281 22.678258 3.412800 0.000000 -63.031100 7.857152 0.993804 3.092545 8.399042 9.330572 -65.134830 2.894941 -2.105463 29.474912 0.291007 2.207786 -0.571093 -0.207900 0.000000 -19.240700
22.926259 16.354988 3.233993 -159.295748 -86.520090 -167.529218 -12.497051 2.277306 -3.245575 -0.172925 11.783669 -14.350644 -0.607515 1.774627 32.692865 1.982867 9.655090 22.147892 3.861901 0.000000 -57.921700 7.881075 0.869706 2.966949 8.813847 9.314778 -64.512380 2.960440 -2.122283 29.596745 0.230798 2.194162 -1.630045 -0.198200 0.000000 -18.603200
22.817065 16.395405 3.177392 -155.605655 -86.959898 -171.194202 -12.402007 2.025326 -3.429418 0.021461 11.938667 -15.345502 -0.542675 1.833348 34.350443 2.081722 10.840801 21.373404 4.330800 0.000000 -53.326000 7.874251 0.779340 2.826084 9.113066 9.242531 -63.729006 3.014718 -2.086955 29.417664 0.166724 2.097663 -2.445518 -0.204400 -0.000000 -18.191400
22.710177 16.439804 3.119157 -153.548522 -87.315521 -173.227870 -12.334324 1.820245 -3.589291 0.084958 12.024281 -16.354650 -0.508908 1.911396 35.891512 2.187593 12.100402 20.391273 4.782500 0.000000 -49.341200 7.865791 0.743890 2.674869 9.323393 9.122302 -62.831914 3.057080 -2.006451 28.976713 0.104518 1.936774 -2.988497 -0.222400 0.000000 -17.999699
22.604304 16.487355 3.060029 -153.512025 -87.544255 -173.224659 -12.283228 1.681560 -3.715847 0.030287 12.055304 -17.391752 -0.515510 2.016058 37.291865 2.299077 13.374386 19.253566 5.183900 0.000000 -46.068300 7.869141 0.779927 2.515672 9.472109 8.970584 -61.862267 3.088637 -1.884726 28.318651 0.050475 1.736031 -3.257944 -0.249801 -0.000000 -18.007100
